# xmcd
#
# Track frame offsets:
#	150
#	19032
#	34668
#	60478
#	81814
#	97482
#	115120
#	130129
#	145278
#	161253
#	177350
#	192774
#
# Disc length: 2798 seconds
#
# Revision: 1
# Processed by: cddbd v1.4PL0 Copyright (c) Steve Scherf et al.
# Submitted via: EasyCDDAExtractor 5.0.6
#
DISCID=9b0aec0c
DTITLE=Chamin Correa - A Mi Amigo Jose
DYEAR=1999
DGENRE=Bolero
TTITLE0=Amor, Amor
TTITLE1=Almohada
TTITLE2=Gavilan o Paloma
TTITLE3=Ojala Que Te Mueras
TTITLE4=El Triste
TTITLE5=La Nave Del Olvido
TTITLE6=Te Extraño
TTITLE7=Amar y Querer
TTITLE8=Me Vas A Echar De Menos
TTITLE9=Preso
TTITLE10=O Tu o Yo
TTITLE11=Mi Vida
EXTD=
EXTT0=
EXTT1=
EXTT2=
EXTT3=
EXTT4=
EXTT5=
EXTT6=
EXTT7=
EXTT8=
EXTT9=
EXTT10=
EXTT11=
PLAYORDER=
